<svg version="1" xmlns="http://www.w3.org/2000/svg" width="682.667" height="682.667" viewBox="0 0 512.000000 512.000000"><path d="M322.5 46.8C241.7 72.6 174 94.4 172.3 95.3c-1.8 1-4.1 3.2-5 5-1.7 3-1.8 11.8-2.1 148.4l-.2 145.2-5.8-3.4c-14.8-8.9-33.3-13-54.2-12.2-15.7.6-25.2 2.8-37.8 8.8-21.5 10-35.3 25.3-40.2 44.4-2.4 9.2-2.5 15.5-.5 24.7 5.1 24.5 26.9 44.4 57.1 52.5 8.7 2.3 11.8 2.6 25.9 2.6 14.1 0 17.2-.3 26-2.6 24-6.3 43.6-20.9 52.4-39 6.4-13 6.1-6.6 6.1-135.7V216.5l130.3-41.4c71.6-22.8 131-41.6 132-41.9 1.6-.4 1.7 4 1.7 83.3 0 46-.3 83.5-.7 83.3-.5-.2-4.5-2.2-9-4.6-41.3-21.2-97.3-9.9-120.1 24.2-7.6 11.3-9.7 18.6-9.6 32.6 0 9.9.4 12.4 2.7 18.3 9.1 23.5 31.9 40.6 61.7 46.3 10.1 2 29.6 1.9 39.6-.1 19.1-4 32.8-11 45-23 8.7-8.6 12.2-13.9 16.3-24.4l2.6-6.6.3-175.3c.3-194 .7-179.6-6-184.4-6.5-4.6-.8-6.1-158.3 44zm134.8 55.3c-.5.4-59.3 19.3-130.8 41.9-71.5 22.7-130.6 41.5-131.2 41.8-1 .3-1.3-6.8-1.3-33.7v-34l12.8-4.1c7-2.2 66.2-21.1 131.7-41.8l119-37.8.3 33.5c.1 18.4-.1 33.8-.5 34.2zM411.9 314c19.9 2.5 36.8 12.6 43.3 25.9 3 6.1 3.2 16.8.3 22.6-5.2 10.8-20.6 21.5-36 25-9 2.1-25 2.1-34 0-23.1-5.3-39.6-21.7-38.3-37.9 1.6-19.4 24.6-35 53.8-36.5 1.4 0 6.3.4 10.9.9zm-284.5 95c12.1 3.1 20.2 7.5 27.7 15.1 5 5 7.1 7.9 8.4 11.9 2.2 6.6 1.6 14.9-1.5 21-5.1 10.1-18.9 19.7-34 23.7-8.8 2.4-28.1 2.4-37 0-22.8-6.1-38.1-21.9-36.7-37.8 1.3-14.8 16.2-28.5 36.9-33.9 10.2-2.6 26.1-2.6 36.2 0z"/></svg>